<?xml version="1.0" encoding="UTF-8"?>
<svg id="Layer_1" xmlns="http://www.w3.org/2000/svg" xmlns:xlink="http://www.w3.org/1999/xlink" viewBox="0 0 32 32">
  <defs>
    <style>
      .cls-1 {
        fill: url(#linear-gradient-2);
      }

      .cls-2 {
        fill: url(#linear-gradient-4);
      }

      .cls-3 {
        fill: url(#linear-gradient-3);
      }

      .cls-4 {
        fill: url(#linear-gradient);
      }
    </style>
    <linearGradient id="linear-gradient" x1="-666.3" y1="103.5" x2="-656.9" y2="98.7" gradientTransform="translate(675.3 -94.5)" gradientUnits="userSpaceOnUse">
      <stop offset="0" stop-color="#ff5437"/>
      <stop offset=".9" stop-color="#ffa147"/>
    </linearGradient>
    <linearGradient id="linear-gradient-2" x1="-666.2" y1="759.4" x2="-656.8" y2="754.6" gradientTransform="translate(675.3 781.7) scale(1 -1)" xlink:href="#linear-gradient"/>
    <linearGradient id="linear-gradient-3" x1="1661.3" y1="2453.9" x2="1664.4" y2="2447.7" gradientTransform="translate(2925.2 580.2) rotate(135)" xlink:href="#linear-gradient"/>
    <linearGradient id="linear-gradient-4" x1="1643.3" y1="2459.8" x2="1666.9" y2="2459.8" gradientTransform="translate(2925.2 580.2) rotate(135)" xlink:href="#linear-gradient"/>
  </defs>
  <path class="cls-4" d="M7.6,6.8c1.2,0,2.9-.2,4.9-1,3.1-1.2,4.9-3.3,5.7-4.4,0,1-.3,3.5-2.1,5.7-3,3.9-7.9,3.9-8.5,3.9v-4.3Z"/>
  <path class="cls-1" d="M7.7,24.4c1.2,0,2.9.2,4.9,1,3.1,1.2,4.9,3.3,5.7,4.4,0-1-.3-3.5-2.1-5.7-3-3.9-7.9-3.9-8.5-3.9v4.3Z"/>
  <path class="cls-3" d="M7.6,13.6v3.8c3.4.2,6.6,1.5,9,4,2.3,2.3,3.6,5.3,3.9,8.5h4.2c0-4.1-1.7-8.2-4.9-11.4-3.4-3.4-7.9-5-12.3-4.9Z"/>
  <path class="cls-2" d="M7.5,17.4v-3.8c3.4-.2,6.6-1.5,9-4,2.3-2.3,3.6-5.3,3.9-8.5h4.2c0,4.1-1.7,8.2-4.9,11.4-3.4,3.4-7.9,5-12.3,4.9Z"/>
</svg>