<?xml version="1.0" encoding="UTF-8"?>
<svg id="Layer_1" xmlns="http://www.w3.org/2000/svg" xmlns:xlink="http://www.w3.org/1999/xlink" viewBox="0 0 120 32">
  <defs>
    <style>
      .cls-1 {
        fill: url(#linear-gradient-15);
      }

      .cls-2 {
        fill: url(#linear-gradient-13);
      }

      .cls-3 {
        fill: url(#linear-gradient-2);
      }

      .cls-4 {
        fill: url(#linear-gradient-10);
      }

      .cls-5 {
        fill: url(#linear-gradient-12);
      }

      .cls-6 {
        fill: url(#linear-gradient-4);
      }

      .cls-7 {
        fill: url(#linear-gradient-3);
      }

      .cls-8 {
        fill: url(#linear-gradient-5);
      }

      .cls-9 {
        fill: url(#linear-gradient-8);
      }

      .cls-10 {
        fill: url(#linear-gradient-14);
      }

      .cls-11 {
        fill: url(#linear-gradient-20);
      }

      .cls-12 {
        fill: url(#linear-gradient-17);
      }

      .cls-13 {
        fill: url(#linear-gradient-7);
      }

      .cls-14 {
        fill: url(#linear-gradient-9);
      }

      .cls-15 {
        fill: url(#linear-gradient-11);
      }

      .cls-16 {
        fill: url(#linear-gradient-19);
      }

      .cls-17 {
        fill: url(#linear-gradient-6);
      }

      .cls-18 {
        fill: url(#linear-gradient-21);
      }

      .cls-19 {
        fill: url(#linear-gradient-16);
      }

      .cls-20 {
        fill: url(#linear-gradient);
      }

      .cls-21 {
        fill: url(#linear-gradient-18);
      }
    </style>
    <linearGradient id="linear-gradient" x1="27.6" y1="26.9" x2="32.8" y2="26.9" gradientUnits="userSpaceOnUse">
      <stop offset="0" stop-color="#fa753c"/>
      <stop offset=".9" stop-color="#ffa147"/>
    </linearGradient>
    <linearGradient id="linear-gradient-2" x1="33.7" y1="26.8" x2="34.6" y2="26.8" xlink:href="#linear-gradient"/>
    <linearGradient id="linear-gradient-3" x1="35.9" y1="27.5" x2="37.9" y2="27.5" xlink:href="#linear-gradient"/>
    <linearGradient id="linear-gradient-4" x1="38.7" y1="27.5" x2="41.6" y2="27.5" xlink:href="#linear-gradient"/>
    <linearGradient id="linear-gradient-5" x1="42.8" y1="26.8" x2="43.5" y2="26.8" xlink:href="#linear-gradient"/>
    <linearGradient id="linear-gradient-6" x1="44.7" y1="27.5" x2="47.6" y2="27.5" xlink:href="#linear-gradient"/>
    <linearGradient id="linear-gradient-7" x1="48.6" y1="27.5" x2="50.8" y2="27.5" xlink:href="#linear-gradient"/>
    <linearGradient id="linear-gradient-8" x1="51.8" y1="27.5" x2="54.1" y2="27.5" xlink:href="#linear-gradient"/>
    <linearGradient id="linear-gradient-9" x1="37" y1="18.8" x2="45.7" y2="18.8" gradientUnits="userSpaceOnUse">
      <stop offset="0" stop-color="#ff5437"/>
      <stop offset=".9" stop-color="#ffa147"/>
    </linearGradient>
    <linearGradient id="linear-gradient-10" x1="47.6" x2="56.3" xlink:href="#linear-gradient-9"/>
    <linearGradient id="linear-gradient-11" x1="57.9" y1="16.6" x2="67.7" y2="16.6" xlink:href="#linear-gradient-9"/>
    <linearGradient id="linear-gradient-12" x1="65.3" y1="11.6" x2="68" y2="11.6" xlink:href="#linear-gradient"/>
    <linearGradient id="linear-gradient-13" x1="69.1" y1="20.7" x2="77.6" y2="20.7" xlink:href="#linear-gradient-9"/>
    <linearGradient id="linear-gradient-14" x1="78.3" y1="18.8" x2="86.6" y2="18.8" xlink:href="#linear-gradient-9"/>
    <linearGradient id="linear-gradient-15" x1="77.6" y1="3.8" x2="64.1" y2="15.6" xlink:href="#linear-gradient"/>
    <linearGradient id="linear-gradient-16" x1="77.1" y1="3.2" x2="63.6" y2="15.1" xlink:href="#linear-gradient"/>
    <linearGradient id="linear-gradient-17" x1="77.4" y1="3.5" x2="63.9" y2="15.4" xlink:href="#linear-gradient"/>
    <linearGradient id="linear-gradient-18" x1="-647.1" y1="107.6" x2="-642.7" y2="105.3" gradientTransform="translate(675.3 -94.5)" xlink:href="#linear-gradient-9"/>
    <linearGradient id="linear-gradient-19" x1="-647.1" y1="762.4" x2="-642.7" y2="760.2" gradientTransform="translate(675.3 781.7) scale(1 -1)" xlink:href="#linear-gradient-9"/>
    <linearGradient id="linear-gradient-20" x1="1724.1" y1="2475" x2="1725.5" y2="2472.1" gradientTransform="translate(3000.3 549.1) rotate(135)" xlink:href="#linear-gradient-9"/>
    <linearGradient id="linear-gradient-21" x1="1715.6" y1="2477.8" x2="1726.7" y2="2477.8" gradientTransform="translate(3000.3 549.1) rotate(135)" xlink:href="#linear-gradient-9"/>
  </defs>
  <g>
    <path class="cls-20" d="M31.1,27.7l.9-2.8h.8l-1.4,4.1h-.6l-.6-2.3-.6,2.3h-.6l-1.4-4.1h.8l.9,2.8.6-2.3h.6l.6,2.3Z"/>
    <path class="cls-3" d="M33.9,25.4c0,0-.1-.2-.1-.3s0-.2.1-.3c0,0,.2-.1.3-.1s.2,0,.3.1c0,0,.1.2.1.3s0,.2-.1.3c0,0-.2.1-.3.1s-.2,0-.3-.1ZM34.5,26.1v2.8h-.7v-2.8h.7Z"/>
    <path class="cls-7" d="M36.7,27.9v1h-.7v-2.8h.7v.7c0-.2.2-.4.3-.5.1-.1.3-.2.5-.2s.3,0,.5.1v.7c-.2,0-.4,0-.5,0-.5,0-.7.4-.7,1.2Z"/>
    <path class="cls-6" d="M41.6,27.5c0,0,0,.2,0,.2h-2.1c0,.2.1.3.2.4.1.1.3.2.5.2s.3,0,.4,0c.1,0,.2-.1.3-.3,0,0,.3.1.6.3-.1.2-.3.4-.5.5s-.5.2-.8.2c-.4,0-.7-.1-1-.4-.3-.3-.4-.6-.4-1s.1-.8.4-1,.6-.4,1-.4.7.1,1,.4c.3.3.4.6.4,1ZM39.4,27.3h1.4c0-.2-.1-.3-.2-.4-.1-.1-.3-.2-.5-.2s-.4,0-.5.2c-.1.1-.2.2-.2.4Z"/>
    <path class="cls-8" d="M42.8,28.9v-4.3h.7v4.3h-.7Z"/>
    <path class="cls-17" d="M47.6,27.5c0,0,0,.2,0,.2h-2.1c0,.2.1.3.2.4.1.1.3.2.5.2s.3,0,.4,0c.1,0,.2-.1.3-.3,0,0,.3.1.6.3-.1.2-.3.4-.5.5s-.5.2-.8.2c-.4,0-.7-.1-1-.4-.3-.3-.4-.6-.4-1s.1-.8.4-1,.6-.4,1-.4.7.1,1,.4c.3.3.4.6.4,1ZM45.4,27.3h1.4c0-.2-.1-.3-.2-.4-.1-.1-.3-.2-.5-.2s-.4,0-.5.2c-.1.1-.2.2-.2.4Z"/>
    <path class="cls-13" d="M49.4,27.7c-.2,0-.3-.1-.4-.2-.1,0-.2-.1-.2-.2,0,0,0-.2,0-.2,0,0,0-.2,0-.2,0-.2.1-.4.3-.6.2-.2.4-.2.7-.2s.5,0,.7.2.3.4.3.7h-.7c0,0,0-.2-.1-.2,0,0-.2,0-.3,0-.2,0-.3,0-.3.3s0,.2.3.2h.5c.1.2.3.2.4.3.1,0,.2.1.2.2,0,0,0,.2,0,.2,0,0,0,.1,0,.2,0,.3-.1.5-.3.6-.2.1-.5.2-.8.2s-.5,0-.8-.3c-.2-.2-.3-.4-.3-.7h.7c0,0,0,.2.2.3.1,0,.2.1.3,0,.1,0,.2,0,.3,0,0,0,.1-.1.1-.2,0,0,0-.1,0-.2,0,0-.1,0-.2,0h-.4Z"/>
    <path class="cls-9" d="M52.7,27.7c-.2,0-.3-.1-.4-.2-.1,0-.2-.1-.2-.2,0,0,0-.2,0-.2,0,0,0-.2,0-.2,0-.2.1-.4.3-.6.2-.2.4-.2.7-.2s.5,0,.7.2.3.4.3.7h-.7c0,0,0-.2-.1-.2,0,0-.2,0-.3,0-.2,0-.3,0-.3.3s0,.2.3.2h.5c.1.2.3.2.4.3.1,0,.2.1.2.2,0,0,0,.2,0,.2,0,0,0,.1,0,.2,0,.3-.1.5-.3.6-.2.1-.5.2-.8.2s-.5,0-.8-.3c-.2-.2-.3-.4-.3-.7h.7c0,0,0,.2.2.3.1,0,.2.1.3,0,.1,0,.2,0,.3,0,0,0,.1-.1.1-.2,0,0,0-.1,0-.2,0,0-.1,0-.2,0h-.4Z"/>
  </g>
  <path class="cls-14" d="M43.6,22.8v-1c-.2.4-.6.7-1.1.9-.5.2-1,.3-1.4.3-1.1,0-2.1-.4-2.9-1.2-.8-.8-1.2-1.8-1.2-3s.4-2.3,1.2-3c.8-.8,1.8-1.2,2.9-1.2s.9,0,1.4.3c.5.2.9.5,1.1.9v-1h2.1v8.1h-2.1ZM39.8,17.2c-.4.4-.7.9-.7,1.6s.2,1.2.7,1.6c.4.4,1,.6,1.6.6s1.1-.2,1.6-.6c.4-.4.7-.9.7-1.6s-.2-1.2-.7-1.6c-.4-.4-1-.6-1.5-.6s-1.1.2-1.6.6Z"/>
  <path class="cls-4" d="M54.2,22.8v-1c-.2.4-.6.7-1.1.9-.5.2-1,.3-1.4.3-1.1,0-2.1-.4-2.9-1.2-.8-.8-1.2-1.8-1.2-3s.4-2.3,1.2-3c.8-.8,1.8-1.2,2.9-1.2s.9,0,1.4.3c.5.2.9.5,1.1.9v-1h2.1v8.1h-2.1ZM50.4,17.2c-.4.4-.7.9-.7,1.6s.2,1.2.7,1.6c.4.4,1,.6,1.6.6s1.1-.2,1.6-.6c.4-.4.7-.9.7-1.6s-.2-1.2-.7-1.6c-.4-.4-1-.6-1.5-.6s-1.1.2-1.6.6Z"/>
  <path class="cls-15" d="M67.7,14.7v8.1h-2.1v-6.4h-4v6.4h-2.1v-6.4h-1.5v-1.7h1.5v-.6c0-1.2.3-2.1.9-2.8.6-.7,1.4-1,2.6-1h.9v2h-.9c-.9,0-1.3.6-1.3,1.7v.6h6.1Z"/>
  <path class="cls-5" d="M65.7,12.5c-.3-.2-.4-.6-.4-.9s.1-.7.4-.9c.3-.2.6-.4,1-.4s.7.1.9.4c.3.2.4.5.4.9s-.1.7-.4.9c-.3.2-.6.4-.9.4s-.7-.1-1-.4Z"/>
  <path class="cls-2" d="M77.6,14.7l-5,12h-2.2l1.9-4.6-3.1-7.5h2.2l2,5,2-5h2.2Z"/>
  <path class="cls-10" d="M86.6,18.7c0,.2,0,.5,0,.7h-6.2c0,.5.3,1,.7,1.3.4.3.9.5,1.5.5s.8,0,1.2-.3c.4-.2.6-.4.8-.8.3.1.8.4,1.6.9-.3.7-.9,1.1-1.5,1.5-.7.3-1.4.5-2.2.5-1.2,0-2.2-.4-3-1.2-.8-.8-1.2-1.8-1.2-3.1s.4-2.3,1.2-3c.8-.8,1.8-1.2,3-1.2s2.2.4,2.9,1.2c.8.8,1.2,1.8,1.2,3ZM80.3,18h4.2c0-.5-.3-1-.7-1.3-.4-.3-.8-.4-1.3-.4s-1,.2-1.4.5c-.4.3-.6.7-.7,1.3Z"/>
  <g>
    <path class="cls-1" d="M71,1.1c.2,0,.4,0,.6.1,0,0,0,0,.1,0,0,0,.1,0,.2,0,0,0,.1,0,.2,0,0,0,0,0,0,0,0,0,.1,0,.2,0,0,0,.2,0,.3.1.2,0,.3.1.5.2.2,0,.4.2.5.3,0,0,0,0,0,0,0,0,.1,0,.2,0,0,0,.1,0,.2.1h0c0,0,.1.1.2.1,0,0,.2.1.3.2.2.2.5.4.7.5,0,0,0,0,0,0,0,0,0,0,0,0,0,0,0,0,0,0,0,0,0,0,0,0,0,0,0,0,0,0,0,0,0,0,.1.1,0,0,0,0,.1,0,0,0,0,0,.1.1h0s0,0,0,0h0s0,0,0,0c0,0,0,0,0,0h0s0,0,0,0c0,0,0,0,0,0h0s0,0,0,0h0c0,0,0,.1.1.2,0,0,0,0,0,.1,0,0,0,0,.1.1h0s0,0,0,0c0,0,0,0,0,0,0,0,.1.1.2.2,0,0,0,0,0,0,.2.2.3.5.5.7,0,0,0,.1.1.2,0,0,0,0,0,0,0,0,0,.2.1.2,0,0,0,0,0,0,0,0,0,0,0,.1,0,.2.2.3.3.5,0,0,0,.2.1.3,0,0,0,0,0,0,0,0,0,0,0,0,0,0,0,.2.1.3,0,0,0,.2,0,.2,0,0,0,0,0,0,0,0,0,0,0,0,0,0,0,0,0,0h0s0,0,0,0h0c0,.2.1.4.2.6,0,.1,0,.2,0,.4,0,0,0,.2,0,.2,0,.2,0,.3,0,.5,0,0,0,.1,0,.2,0,0,0,.1,0,.2,0,0,0,0,0,0,0,0,0,0,0,0,0,0,0,.2,0,.2,0,0,0,.2,0,.2,0,.3,0,.5,0,.8,0,0,0,.1,0,.2,0,0,0,.2,0,.3,0,0,0,.1,0,.2,0,0,0,.2,0,.2,0,0,0,0,0,.1,0,0,0,0,0,0,0,0,0,0,0,0-.5,0-1,0-1.5,0q-.1,0-.1-.1c0,0,0-.2,0-.2,0,0,0-.2,0-.2,0,0,0-.1,0-.2,0,0,0,0,0,0,0-.1,0-.3,0-.4,0-.1,0-.3,0-.4,0,0,0,0,0,0,0-.1,0-.2,0-.3,0,0,0,0,0,0,0,0,0,0,0,0,0,0,0,0,0,0,0,0,0-.2,0-.2,0-.2,0-.3-.1-.5,0,0,0,0,0,0,0-.2-.1-.5-.2-.7,0,0,0,0,0-.1,0-.2-.1-.3-.2-.5,0,0,0-.1,0-.2,0,0,0-.1-.1-.2h0s0,0,0,0c0,0,0,0,0,0,0,0,0,0,0,0,0-.1-.2-.3-.2-.4,0-.1-.2-.3-.3-.4,0,0,0-.1-.1-.2,0,0,0,0,0,0,0-.1-.1-.2-.2-.3-.2-.3-.4-.5-.6-.7,0,0,0,0,0,0,0,0,0,0,0,0-.3-.3-.5-.5-.8-.7-.1,0-.2-.2-.3-.2,0,0,0,0,0,0,0,0-.1-.1-.2-.1h0s0,0,0,0c-.1-.1-.3-.2-.4-.2,0,0,0,0,0,0-.2,0-.3-.2-.5-.2,0,0,0,0,0,0,0,0,0,0,0,0-.1,0-.3-.1-.4-.2,0,0,0,0,0,0,0,0,0,0,0,0,0,0-.1,0-.2,0,0,0-.2,0-.2,0,0,0-.1,0-.2,0,0,0-.2,0-.2,0,0,0-.1,0-.2,0,0,0-.2,0-.3,0,0,0,0,0,0,0,0,0,0,0,0-.1,0,0,0,0,0,0,0,0,0-.1,0-.2,0,0,0-.2,0-.2,0-.2.1-.3.2-.5,0,0,0-.2,0-.2,0,0,0,0,0,0,0,0,.1,0,.2,0Z"/>
    <path class="cls-19" d="M68,8.3s0,0,0,0c0,0,0,0,0-.1,0,0,0,0,0,0,0,0,0,0,0,0,0,0,0-.1,0-.2,0,0,0,0,0-.1,0,0,0,0,0,0,0,0,0,0,0,0,0-.2.1-.3.2-.5,0,0,0,0,0,0,0,0,0,0,0,0h0s0,0,0,0c0,0,0,0,0,0,0,0,.2,0,.2,0h0s0,0,0,0c0,0,.2,0,.2,0,0,0,0,0,0,0,0,0,.1,0,.2,0,0,0,.2,0,.2.1.2,0,.3.2.5.3h0s0,0,0,0c0,0,.2.1.2.2,0,0,0,0,0,0,0,0,0,0,0,0,0,0,0,0,.1,0,.2.2.4.4.6.6,0,0,0,.1.1.2.1.2.2.4.3.6,0,0,0,.1.1.2,0,0,0,0,0,0,0,0,0,.2,0,.2,0,.2.1.3.2.5v.2c0,0,0,.2,0,.2,0,0,0,.1,0,.2,0,0,0,.2,0,.3,0,0,0,.2,0,.3,0,0,0,0,0,0,0,0,0,.2,0,.3,0,0,0,0,0,0-.1,0-.3,0-.4,0,0,0,0,0-.1,0,0,0-.1,0-.2,0-.2,0-.3,0-.5,0,0,0,0,0,0,0,0,0,0,0,0,0,0,0,0-.1,0-.2,0,0,0-.2,0-.2,0,0,0-.2,0-.2,0-.2,0-.3-.1-.4,0,0,0-.2-.1-.3,0,0,0,0,0-.1,0,0,0,0,0,0,0-.2-.2-.3-.3-.5,0,0,0-.1-.1-.1h0s0,0,0,0c0,0,0,0,0,0,0,0,0,0,0,0h0s0,0,0,0h0c0,0-.1-.1-.2-.2,0,0,0,0,0,0,0,0,0,0,0,0h0s0,0,0,0h0c0,0,0,0-.1,0,0,0,0,0,0,0,0,0,0,0,0,0-.1-.1-.3-.2-.4-.3-.2-.1-.4-.2-.6-.2,0,0,0,0,0,0Z"/>
    <path class="cls-12" d="M75.3,11.6s0,0,0,.1c-.1,0-.2,0-.3,0,0,0-.1,0-.2,0,0,0-.2,0-.2,0,0,0-.2,0-.2,0,0,0-.1,0-.2,0,0,0,0,0,0,0,0,0,0,0,0,0,0,0,0,0,0,0,0,0,0,0,0,0,0,0,0,0,0,0,0,0-.1,0-.1,0,0,0,0,0,0-.1,0,0,0-.2,0-.2,0-.1,0-.2,0-.3,0,0,0,0,0-.1,0-.1,0-.2,0-.3,0,0,0,0,0-.1,0,0,0-.1,0-.2,0,0,0-.1,0-.2,0,0,0,0,0,0h0c0-.2,0-.3-.1-.5,0,0,0-.2,0-.2,0,0,0-.2,0-.3,0,0,0,0,0,0,0,0,0,0,0,0,0,0,0,0,0,0,0,0,0,0,0,0,0-.2-.2-.3-.2-.5,0-.2-.2-.3-.3-.5,0,0,0,0-.1-.1,0,0,0,0,0,0,0,0,0,0,0,0-.1-.2-.3-.4-.5-.5-.1-.1-.2-.2-.4-.3,0,0-.2-.1-.2-.2,0,0,0,0,0,0,0,0,0,0,0,0,0,0-.1,0-.2-.1,0,0-.1-.1-.2-.1,0,0,0,0,0,0,0,0-.1,0-.2-.1-.2,0-.3-.2-.5-.2,0,0-.2,0-.2,0-.2,0-.3-.1-.5-.1,0,0-.1,0-.2,0,0,0-.2,0-.3,0,0,0,0,0,0,0,0,0,0,0,0,0,0,0,0-.2,0-.2,0-.2.1-.3.2-.5,0-.1.1-.3.2-.5,0,0,0-.2,0-.2,0,0,0,0,.1,0,.1,0,.3,0,.4,0,0,0,.2,0,.2,0,0,0,.1,0,.2,0,0,0,.2,0,.3,0,0,0,0,0,0,0,0,0,.1,0,.2,0,0,0,.1,0,.2,0,.1,0,.2.1.3.2,0,0,0,0,.2,0h0s0,0,0,0h0s0,0,0,0h0c0,0,0,0,.1,0h0s0,0,0,0c.1,0,.3.2.4.3,0,0,0,0,0,0,0,0,0,0,.1.1,0,0,0,0,.1,0,0,0,0,0,0,0,0,0,0,0,0,0,0,0,0,0,0,0,.3.3.5.5.8.8,0,0,.1.1.2.2,0,0,0,0,0,0,0,0,0,0,0,0h0c.1.2.2.3.3.5,0,0,0,.1.1.2,0,0,0,0,0,0,0,.2.2.3.2.5,0,0,0,0,0,0h0c0,.2.1.3.2.5,0,.2.1.3.2.5,0,0,0,.1,0,.2,0,0,0,.2,0,.2,0,.2,0,.3.1.5,0,0,0,.2,0,.3,0,0,0,.1,0,.2,0,0,0,.1,0,.2,0,0,0,.2,0,.2,0,0,0,0,0,0,0,.1,0,.3,0,.4,0,0,0,0,0,0,0,.1,0,.2,0,.4,0,0,0,0,0,0,0,0,0,0,0,0Z"/>
  </g>
  <path class="cls-21" d="M27.5,12c.5,0,1.4,0,2.3-.5,1.4-.6,2.3-1.6,2.7-2.1,0,.5-.1,1.6-1,2.7-1.4,1.8-3.7,1.8-4,1.8v-2Z"/>
  <path class="cls-16" d="M27.6,20.2c.5,0,1.4,0,2.3.5,1.4.6,2.3,1.6,2.7,2.1,0-.5-.1-1.6-1-2.7-1.4-1.8-3.7-1.8-4-1.8v2Z"/>
  <path class="cls-11" d="M27.5,15.2v1.8c1.6,0,3.1.7,4.2,1.9s1.7,2.5,1.8,4h2c0-1.9-.8-3.9-2.3-5.3s-3.7-2.3-5.8-2.3Z"/>
  <path class="cls-18" d="M27.4,17v-1.8c1.6,0,3.1-.7,4.2-1.9s1.7-2.5,1.8-4h2c0,1.9-.8,3.9-2.3,5.3s-3.7,2.3-5.8,2.3Z"/>
</svg>